<svg width="204" height="93" viewBox="0 0 204 93" fill="none" xmlns="http://www.w3.org/2000/svg">
<path d="M65.9631 89.6355C105.092 89.6355 147.694 90.8296 183.323 67.7768C192.726 61.6928 207.453 50.7727 200.438 35.564C196.01 25.9628 186.256 20.6022 178.329 16.5814C164.318 9.47437 149.175 5.60712 134.163 3.47895C103.423 -0.8789 67.9669 -0.174119 38.4959 12.6826C27.5147 17.4731 -3.9483 30.4067 1.66481 51.8621C6.37485 69.8656 23.1827 78.5406 36.8312 82.7328C62.8661 90.7295 90.7962 91.0263 117.464 91.9364" stroke="#E7F63C" stroke-width="2" stroke-linecap="round"/>
<path d="M155.211 44.6438V14.751H168.279C171.524 14.751 174.371 15.3773 176.819 16.63C179.268 17.8826 181.175 19.6192 182.542 21.8398C183.908 24.0605 184.592 26.6796 184.592 29.6974C184.592 32.6867 183.908 35.3059 182.542 37.5549C181.175 39.7755 179.268 41.5122 176.819 42.7648C174.371 44.0175 171.524 44.6438 168.279 44.6438H155.211ZM160.763 39.9464H168.022C170.271 39.9464 172.207 39.5193 173.83 38.6652C175.481 37.8112 176.748 36.6154 177.631 35.0781C178.542 33.5408 178.997 31.7472 178.997 29.6974C178.997 27.6191 178.542 25.8256 177.631 24.3167C176.748 22.7793 175.481 21.5836 173.83 20.7295C172.207 19.8755 170.271 19.4484 168.022 19.4484H160.763V39.9464Z" fill="white"/>
<path d="M131.727 27.1778H146.588V31.7472H131.727V27.1778ZM132.154 39.9891H149.022V44.6438H126.603V14.751H148.425V19.4057H132.154V39.9891Z" fill="white"/>
<path d="M106.978 44.6438V19.4484H97.0706V14.751H122.437V19.4484H112.529V44.6438H106.978Z" fill="white"/>
<path d="M87.2769 44.6438V14.751H92.8284V44.6438H87.2769Z" fill="white"/>
<path d="M52.7051 44.6438V14.751H57.2744L76.0215 37.7684H73.7582V14.751H79.267V44.6438H74.6977L55.9506 21.6263H58.2139V44.6438H52.7051Z" fill="white"/>
<path d="M31.8626 45.0708C27.763 45.0708 24.546 43.9178 22.2115 41.6118C19.9055 39.3058 18.7524 35.9749 18.7524 31.6191V14.751H24.304V31.4056C24.304 34.4802 24.9588 36.7151 26.2683 38.1101C27.6064 39.5051 29.4854 40.2026 31.9053 40.2026C34.3252 40.2026 36.1899 39.5051 37.4995 38.1101C38.8091 36.7151 39.4639 34.4802 39.4639 31.4056V14.751H44.93V31.6191C44.93 35.9749 43.7628 39.3058 41.4283 41.6118C39.1223 43.9178 35.9337 45.0708 31.8626 45.0708Z" fill="white"/>
<path d="M175.253 77.5086C173.911 77.5086 172.675 77.2876 171.545 76.8456C170.416 76.4036 169.433 75.7897 168.599 75.004C167.764 74.2019 167.117 73.2688 166.659 72.2047C166.2 71.1243 165.971 69.9457 165.971 68.6688C165.971 67.392 166.2 66.2215 166.659 65.1575C167.117 64.0771 167.764 63.144 168.599 62.3582C169.433 61.5561 170.416 60.9341 171.545 60.4921C172.675 60.0501 173.902 59.8291 175.228 59.8291C176.571 59.8291 177.798 60.0501 178.912 60.4921C180.041 60.9341 181.023 61.5561 181.858 62.3582C182.693 63.144 183.34 64.0771 183.798 65.1575C184.256 66.2215 184.486 67.392 184.486 68.6688C184.486 69.9457 184.256 71.1243 183.798 72.2047C183.34 73.2851 182.693 74.2182 181.858 75.004C181.023 75.7897 180.041 76.4036 178.912 76.8456C177.798 77.2876 176.579 77.5086 175.253 77.5086ZM175.228 74.7093C176.096 74.7093 176.898 74.562 177.635 74.2673C178.371 73.9727 179.01 73.5552 179.55 73.015C180.09 72.4585 180.508 71.82 180.802 71.0998C181.113 70.3631 181.269 69.5528 181.269 68.6688C181.269 67.7849 181.113 66.9827 180.802 66.2625C180.508 65.5258 180.09 64.8874 179.55 64.3472C179.01 63.7906 178.371 63.365 177.635 63.0703C176.898 62.7757 176.096 62.6284 175.228 62.6284C174.361 62.6284 173.559 62.7757 172.822 63.0703C172.102 63.365 171.463 63.7906 170.907 64.3472C170.367 64.8874 169.941 65.5258 169.63 66.2625C169.335 66.9827 169.188 67.7849 169.188 68.6688C169.188 69.5364 169.335 70.3386 169.63 71.0752C169.941 71.8119 170.367 72.4585 170.907 73.015C171.447 73.5552 172.085 73.9727 172.822 74.2673C173.559 74.562 174.361 74.7093 175.228 74.7093Z" fill="white"/>
<path d="M159.358 77.2626V60.0742H162.55V77.2626H159.358Z" fill="white"/>
<path d="M139.071 77.2626V60.0742H146.585C148.451 60.0742 150.088 60.4344 151.496 61.1546C152.904 61.8749 154 62.8735 154.786 64.1503C155.572 65.4272 155.965 66.9332 155.965 68.6684C155.965 70.3872 155.572 71.8933 154.786 73.1865C154 74.4633 152.904 75.4619 151.496 76.1822C150.088 76.9025 148.451 77.2626 146.585 77.2626H139.071ZM142.263 74.5616H146.437C147.731 74.5616 148.844 74.316 149.777 73.8249C150.726 73.3338 151.455 72.6463 151.962 71.7623C152.486 70.8783 152.748 69.847 152.748 68.6684C152.748 67.4734 152.486 66.4421 151.962 65.5745C151.455 64.6905 150.726 64.003 149.777 63.5119C148.844 63.0208 147.731 62.7752 146.437 62.7752H142.263V74.5616Z" fill="white"/>
<path d="M127.087 77.5081C124.729 77.5081 122.88 76.8452 121.537 75.5192C120.211 74.1932 119.548 72.278 119.548 69.7734V60.0742H122.74V69.6506C122.74 71.4185 123.117 72.7036 123.87 73.5057C124.639 74.3078 125.72 74.7089 127.111 74.7089C128.503 74.7089 129.575 74.3078 130.328 73.5057C131.081 72.7036 131.457 71.4185 131.457 69.6506V60.0742H134.6V69.7734C134.6 72.278 133.929 74.1932 132.587 75.5192C131.261 76.8452 129.428 77.5081 127.087 77.5081Z" fill="white"/>
<path d="M108.723 77.2626V62.7752H103.026V60.0742H117.612V62.7752H111.915V77.2626H108.723Z" fill="white"/>
<path d="M95.3621 77.5086C94.0198 77.5086 92.7347 77.3203 91.507 76.9438C90.2792 76.5509 89.3052 76.0517 88.585 75.446L89.6899 72.9659C90.3775 73.5061 91.2287 73.9563 92.2436 74.3164C93.2586 74.6766 94.2981 74.8567 95.3621 74.8567C96.2624 74.8567 96.9909 74.7584 97.5475 74.562C98.104 74.3656 98.5133 74.1036 98.7752 73.7762C99.0371 73.4325 99.1681 73.0478 99.1681 72.6222C99.1681 72.0983 98.9798 71.6809 98.6033 71.3699C98.2268 71.0425 97.7357 70.7887 97.13 70.6087C96.5407 70.4122 95.8777 70.2322 95.1411 70.0685C94.4208 69.9048 93.6924 69.7165 92.9557 69.5037C92.2354 69.2745 91.5725 68.988 90.9668 68.6443C90.3775 68.2841 89.8946 67.8094 89.518 67.2201C89.1415 66.6308 88.9533 65.8778 88.9533 64.9611C88.9533 64.028 89.1988 63.1767 89.6899 62.4074C90.1974 61.6216 90.9586 60.9995 91.9735 60.5412C93.0048 60.0665 94.3062 59.8291 95.8777 59.8291C96.909 59.8291 97.9322 59.9601 98.9471 60.222C99.962 60.4839 100.846 60.8604 101.599 61.3515L100.592 63.8315C99.8229 63.3732 99.0289 63.0376 98.2105 62.8248C97.392 62.5956 96.6062 62.481 95.8532 62.481C94.9692 62.481 94.2489 62.5874 93.6924 62.8002C93.1522 63.013 92.7511 63.2913 92.4892 63.6351C92.2436 63.9789 92.1209 64.3717 92.1209 64.8137C92.1209 65.3376 92.3009 65.7632 92.6611 66.0906C93.0376 66.4016 93.5205 66.6472 94.1098 66.8272C94.7155 67.0073 95.3866 67.1874 96.1233 67.3674C96.8599 67.5311 97.5884 67.7194 98.3087 67.9322C99.0453 68.145 99.7083 68.4233 100.298 68.7671C100.903 69.1108 101.386 69.5774 101.746 70.1667C102.123 70.756 102.311 71.5008 102.311 72.4012C102.311 73.3179 102.057 74.1691 101.55 74.9549C101.059 75.7243 100.298 76.3463 99.2663 76.821C98.235 77.2794 96.9336 77.5086 95.3621 77.5086Z" fill="white"/>
<path d="M64.5674 77.2626V60.0742H72.6214C74.684 60.0742 76.2555 60.4835 77.3359 61.302C78.4163 62.1041 78.9565 63.1845 78.9565 64.5432C78.9565 65.4599 78.7437 66.2457 78.3181 66.9005C77.8925 67.5389 77.3195 68.0382 76.5992 68.3983C75.8953 68.7421 75.126 68.914 74.2911 68.914L74.7331 68.03C75.6989 68.03 76.5665 68.21 77.3359 68.5702C78.1053 68.914 78.711 69.4214 79.1529 70.0926C79.6113 70.7637 79.8405 71.5986 79.8405 72.5972C79.8405 74.0705 79.2757 75.2164 78.1462 76.0349C77.0167 76.8533 75.3388 77.2626 73.1125 77.2626H64.5674ZM67.7595 74.758H72.916C74.111 74.758 75.0277 74.5616 75.6662 74.1687C76.3046 73.7758 76.6238 73.1456 76.6238 72.278C76.6238 71.4267 76.3046 70.8047 75.6662 70.4118C75.0277 70.0026 74.111 69.7979 72.916 69.7979H67.514V67.3179H72.2776C73.3907 67.3179 74.242 67.1215 74.8313 66.7286C75.437 66.3357 75.7398 65.7464 75.7398 64.9606C75.7398 64.1585 75.437 63.561 74.8313 63.1681C74.242 62.7752 73.3907 62.5788 72.2776 62.5788H67.7595V74.758Z" fill="white"/>
<path d="M51.0643 67.2197H59.6093V69.847H51.0643V67.2197ZM51.3098 74.5861H61.009V77.2626H48.1177V60.0742H60.6652V62.7507H51.3098V74.5861Z" fill="white"/>
<path d="M24.4492 77.2626L18.7524 60.0742H22.0673L27.1502 75.6174H25.505L30.7843 60.0742H33.7309L38.8628 75.6174H37.2668L42.4724 60.0742H45.5172L39.8205 77.2626H36.4319L31.7419 63.2418H32.6259L27.8623 77.2626H24.4492Z" fill="white"/>
</svg>
