<svg width="152" height="70" viewBox="0 0 152 70" fill="none" xmlns="http://www.w3.org/2000/svg">
<path d="M49.3334 66.8958C78.446 66.8958 110.142 67.7843 136.651 50.6327C143.647 46.1061 154.603 37.9814 149.385 26.6659C146.09 19.5225 138.833 15.5341 132.935 12.5426C122.51 7.25491 111.244 4.37762 100.075 2.79423C77.204 -0.44806 50.8243 0.0763065 28.8974 9.64188C20.7273 13.2061 -2.6816 22.8288 1.49463 38.7919C4.99896 52.1868 17.5042 58.6411 27.6589 61.7601C47.0292 67.7098 67.8095 67.9306 87.6509 68.6078" stroke="#E7F63C" stroke-width="2" stroke-linecap="round"/>
<path d="M115.735 33.4223V11.1816H125.457C127.872 11.1816 129.99 11.6476 131.812 12.5796C133.634 13.5116 135.053 14.8037 136.069 16.4559C137.086 18.108 137.594 20.0567 137.594 22.302C137.594 24.526 137.086 26.4747 136.069 28.1481C135.053 29.8002 133.634 31.0923 131.812 32.0243C129.99 32.9563 127.872 33.4223 125.457 33.4223H115.735ZM119.866 29.9273H125.267C126.94 29.9273 128.381 29.6096 129.588 28.9742C130.816 28.3387 131.759 27.4491 132.416 26.3053C133.093 25.1615 133.432 23.827 133.432 22.302C133.432 20.7557 133.093 19.4213 132.416 18.2987C131.759 17.1548 130.816 16.2652 129.588 15.6298C128.381 14.9943 126.94 14.6766 125.267 14.6766H119.866V29.9273Z" fill="#1C0F0F"/>
<path d="M98.2629 20.4274H109.32V23.827H98.2629V20.4274ZM98.5806 29.9591H111.131V33.4223H94.4502V11.1816H110.686V14.6448H98.5806V29.9591Z" fill="#1C0F0F"/>
<path d="M79.8487 33.4223V14.6766H72.4775V11.1816H91.3503V14.6766H83.9791V33.4223H79.8487Z" fill="#1C0F0F"/>
<path d="M65.1909 33.4223V11.1816H69.3213V33.4223H65.1909Z" fill="#1C0F0F"/>
<path d="M39.469 33.4223V11.1816H42.8686L56.8167 28.3069H55.1328V11.1816H59.2314V33.4223H55.8318L41.8837 16.297H43.5676V33.4223H39.469Z" fill="#1C0F0F"/>
<path d="M23.9621 33.74C20.912 33.74 18.5185 32.8822 16.7816 31.1665C15.0659 29.4508 14.208 26.9725 14.208 23.7317V11.1816H18.3384V23.5729C18.3384 25.8605 18.8256 27.5232 19.7999 28.5611C20.7955 29.599 22.1935 30.118 23.9939 30.118C25.7943 30.118 27.1817 29.599 28.1561 28.5611C29.1304 27.5232 29.6176 25.8605 29.6176 23.5729V11.1816H33.6845V23.7317C33.6845 26.9725 32.816 29.4508 31.0791 31.1665C29.3634 32.8822 26.9911 33.74 23.9621 33.74Z" fill="#1C0F0F"/>
<path d="M130.646 57.8735C129.648 57.8735 128.728 57.7091 127.888 57.3802C127.047 57.0514 126.317 56.5946 125.696 56.01C125.074 55.4132 124.593 54.719 124.252 53.9274C123.911 53.1235 123.741 52.2466 123.741 51.2966C123.741 50.3466 123.911 49.4758 124.252 48.6841C124.593 47.8803 125.074 47.1861 125.696 46.6014C126.317 46.0047 127.047 45.5418 127.888 45.213C128.728 44.8841 129.642 44.7197 130.628 44.7197C131.627 44.7197 132.54 44.8841 133.369 45.213C134.209 45.5418 134.94 46.0047 135.561 46.6014C136.182 47.1861 136.663 47.8803 137.004 48.6841C137.345 49.4758 137.516 50.3466 137.516 51.2966C137.516 52.2466 137.345 53.1235 137.004 53.9274C136.663 54.7312 136.182 55.4254 135.561 56.01C134.94 56.5946 134.209 57.0514 133.369 57.3802C132.54 57.7091 131.633 57.8735 130.646 57.8735ZM130.628 55.7908C131.274 55.7908 131.87 55.6812 132.419 55.462C132.967 55.2427 133.442 54.9322 133.844 54.5302C134.245 54.1161 134.556 53.6411 134.775 53.1052C135.007 52.5572 135.122 51.9543 135.122 51.2966C135.122 50.6389 135.007 50.0421 134.775 49.5062C134.556 48.9582 134.245 48.4832 133.844 48.0812C133.442 47.6671 132.967 47.3505 132.419 47.1312C131.87 46.912 131.274 46.8024 130.628 46.8024C129.983 46.8024 129.386 46.912 128.838 47.1312C128.302 47.3505 127.827 47.6671 127.413 48.0812C127.011 48.4832 126.694 48.9582 126.463 49.5062C126.244 50.0421 126.134 50.6389 126.134 51.2966C126.134 51.9421 126.244 52.5389 126.463 53.087C126.694 53.6351 127.011 54.1161 127.413 54.5302C127.815 54.9322 128.29 55.2427 128.838 55.462C129.386 55.6812 129.983 55.7908 130.628 55.7908Z" fill="#1C0F0F"/>
<path d="M118.82 57.6907V44.9023H121.195V57.6907H118.82Z" fill="#1C0F0F"/>
<path d="M103.727 57.6907V44.9023H109.317C110.705 44.9023 111.923 45.1703 112.971 45.7062C114.018 46.2421 114.834 46.985 115.419 47.935C116.003 48.885 116.296 50.0055 116.296 51.2965C116.296 52.5754 116.003 53.6959 115.419 54.658C114.834 55.608 114.018 56.351 112.971 56.8869C111.923 57.4228 110.705 57.6907 109.317 57.6907H103.727ZM106.102 55.6811H109.207C110.169 55.6811 110.998 55.4984 111.692 55.133C112.398 54.7677 112.94 54.2561 113.318 53.5984C113.708 52.9408 113.902 52.1734 113.902 51.2965C113.902 50.4074 113.708 49.6401 113.318 48.9946C112.94 48.3369 112.398 47.8254 111.692 47.46C110.998 47.0946 110.169 46.9119 109.207 46.9119H106.102V55.6811Z" fill="#1C0F0F"/>
<path d="M94.8103 57.8734C93.0564 57.8734 91.6802 57.3801 90.6815 56.3936C89.6949 55.4071 89.2017 53.9821 89.2017 52.1186V44.9023H91.5766V52.0273C91.5766 53.3427 91.8568 54.2988 92.417 54.8955C92.9895 55.4923 93.7933 55.7907 94.8285 55.7907C95.8638 55.7907 96.6615 55.4923 97.2218 54.8955C97.782 54.2988 98.0622 53.3427 98.0622 52.0273V44.9023H100.401V52.1186C100.401 53.9821 99.9013 55.4071 98.9026 56.3936C97.916 57.3801 96.5519 57.8734 94.8103 57.8734Z" fill="#1C0F0F"/>
<path d="M81.1474 57.6907V46.9119H76.9089V44.9023H87.7608V46.9119H83.5224V57.6907H81.1474Z" fill="#1C0F0F"/>
<path d="M71.2066 57.8735C70.2079 57.8735 69.2518 57.7334 68.3383 57.4533C67.4249 57.161 66.7002 56.7895 66.1643 56.3389L66.9864 54.4937C67.498 54.8956 68.1313 55.2306 68.8864 55.4985C69.6415 55.7664 70.4149 55.9004 71.2066 55.9004C71.8765 55.9004 72.4184 55.8273 72.8325 55.6812C73.2466 55.535 73.5511 55.3402 73.746 55.0966C73.9409 54.8408 74.0383 54.5546 74.0383 54.2379C74.0383 53.8482 73.8982 53.5376 73.6181 53.3062C73.338 53.0626 72.9726 52.8738 72.522 52.7399C72.0835 52.5937 71.5902 52.4597 71.0422 52.3379C70.5063 52.2162 69.9643 52.0761 69.4162 51.9178C68.8803 51.7472 68.387 51.5341 67.9364 51.2783C67.498 51.0104 67.1387 50.6572 66.8585 50.2187C66.5784 49.7803 66.4383 49.22 66.4383 48.538C66.4383 47.8437 66.621 47.2104 66.9864 46.638C67.364 46.0534 67.9303 45.5906 68.6854 45.2495C69.4527 44.8963 70.421 44.7197 71.5902 44.7197C72.3575 44.7197 73.1188 44.8172 73.8739 45.012C74.629 45.2069 75.2867 45.487 75.8469 45.8524L75.0979 47.6976C74.5255 47.3566 73.9348 47.1069 73.3258 46.9486C72.7168 46.778 72.1322 46.6928 71.572 46.6928C70.9143 46.6928 70.3784 46.772 69.9643 46.9303C69.5624 47.0886 69.264 47.2957 69.0691 47.5514C68.8864 47.8072 68.7951 48.0995 68.7951 48.4284C68.7951 48.8181 68.929 49.1348 69.197 49.3783C69.4771 49.6098 69.8364 49.7924 70.2749 49.9264C70.7255 50.0604 71.2249 50.1944 71.7729 50.3283C72.321 50.4501 72.863 50.5902 73.3989 50.7485C73.9469 50.9069 74.4402 51.1139 74.8787 51.3697C75.3293 51.6255 75.6886 51.9726 75.9565 52.411C76.2367 52.8495 76.3767 53.4036 76.3767 54.0735C76.3767 54.7556 76.188 55.3889 75.8104 55.9735C75.445 56.5459 74.8787 57.0087 74.1114 57.3619C73.3441 57.703 72.3758 57.8735 71.2066 57.8735Z" fill="#1C0F0F"/>
<path d="M48.2949 57.6907V44.9023H54.2872C55.8218 44.9023 56.991 45.2068 57.7949 45.8158C58.5987 46.4126 59.0006 47.2164 59.0006 48.2273C59.0006 48.9094 58.8423 49.494 58.5256 49.9812C58.209 50.4562 57.7827 50.8276 57.2468 51.0956C56.7231 51.3513 56.1506 51.4792 55.5295 51.4792L55.8583 50.8215C56.5769 50.8215 57.2224 50.9555 57.7949 51.2235C58.3673 51.4792 58.8179 51.8568 59.1468 52.3561C59.4878 52.8555 59.6583 53.4766 59.6583 54.2196C59.6583 55.3157 59.2381 56.1683 58.3977 56.7773C57.5574 57.3862 56.309 57.6907 54.6526 57.6907H48.2949ZM50.6699 55.8273H54.5064C55.3955 55.8273 56.0776 55.6811 56.5526 55.3888C57.0276 55.0965 57.2651 54.6276 57.2651 53.9821C57.2651 53.3488 57.0276 52.8859 56.5526 52.5936C56.0776 52.2892 55.3955 52.1369 54.5064 52.1369H50.4872V50.2917H54.0314C54.8596 50.2917 55.4929 50.1456 55.9314 49.8533C56.382 49.561 56.6074 49.1225 56.6074 48.5379C56.6074 47.9411 56.382 47.4966 55.9314 47.2043C55.4929 46.9119 54.8596 46.7658 54.0314 46.7658H50.6699V55.8273Z" fill="#1C0F0F"/>
<path d="M38.2484 50.2187H44.6061V52.1734H38.2484V50.2187ZM38.4311 55.6994H45.6474V57.6907H36.0562V44.9023H45.3917V46.8937H38.4311V55.6994Z" fill="#1C0F0F"/>
<path d="M18.4464 57.6907L14.208 44.9023H16.6743L20.456 56.4667H19.232L23.1599 44.9023H25.3522L29.1704 56.4667H27.9829L31.856 44.9023H34.1213L29.8829 57.6907H27.3618L23.8724 47.2591H24.5301L20.9858 57.6907H18.4464Z" fill="#1C0F0F"/>
</svg>
