<svg width="32" height="32" viewBox="0 0 32 32" fill="none" xmlns="http://www.w3.org/2000/svg">
<circle cx="16" cy="16" r="16" fill="#E7F63C"/>
<g clip-path="url(#clip0_346_415)">
<path fill-rule="evenodd" clip-rule="evenodd" d="M21.4809 9.69164C21.6868 9.60496 21.9122 9.57507 22.1336 9.60507C22.355 9.63507 22.5643 9.72386 22.7398 9.86221C22.9152 10.0006 23.0504 10.1834 23.1312 10.3917C23.212 10.6 23.2355 10.8262 23.1992 11.0466L21.3092 22.5108C21.1259 23.6166 19.9125 24.2508 18.8984 23.7C18.05 23.2391 16.79 22.5291 15.6567 21.7883C15.09 21.4175 13.3542 20.23 13.5675 19.385C13.7509 18.6625 16.6675 15.9475 18.3342 14.3333C18.9884 13.6991 18.69 13.3333 17.9175 13.9166C15.9992 15.365 12.9192 17.5675 11.9009 18.1875C11.0025 18.7341 10.5342 18.8275 9.9742 18.7341C8.95254 18.5641 8.00504 18.3008 7.2317 17.98C6.1867 17.5466 6.23754 16.11 7.23087 15.6916L21.4809 9.69164Z" fill="#1C0F0F"/>
</g>
<defs>
<clipPath id="clip0_346_415">
<rect width="20" height="20" fill="white" transform="translate(5 6)"/>
</clipPath>
</defs>
</svg>
