<svg width="32" height="32" viewBox="0 0 32 32" fill="none" xmlns="http://www.w3.org/2000/svg">
<g clip-path="url(#clip0_346_421)">
<path fill-rule="evenodd" clip-rule="evenodd" d="M16.0078 0.152344C7.24838 0.152344 0.147949 7.25278 0.147949 16.0121C0.147949 19.0096 0.980589 21.8168 2.42859 24.2085L1.01389 29.0172C0.932668 29.2933 0.927323 29.5861 0.998422 29.865C1.06952 30.1439 1.21444 30.3985 1.41794 30.602C1.62144 30.8055 1.876 30.9504 2.15488 31.0215C2.43375 31.0926 2.72662 31.0872 3.00271 31.006L7.81141 29.5913C10.2834 31.087 13.1184 31.8759 16.0078 31.8719C24.7671 31.8719 31.8676 24.7715 31.8676 16.0121C31.8676 7.25278 24.7671 0.152344 16.0078 0.152344ZM12.4203 19.6012C15.6287 22.8081 18.6912 23.2315 19.7729 23.2712C21.4175 23.3314 23.0194 22.0753 23.6427 20.6178C23.7213 20.4365 23.7499 20.2374 23.7254 20.0413C23.7008 19.8451 23.624 19.6592 23.5031 19.5029C22.634 18.3927 21.4588 17.595 20.3105 16.802C20.0708 16.6362 19.7762 16.5697 19.4885 16.6164C19.2008 16.6631 18.9423 16.8194 18.7674 17.0525L17.8158 18.5037C17.7657 18.5817 17.6878 18.6377 17.5979 18.6601C17.5079 18.6825 17.4128 18.6697 17.332 18.6243C16.6866 18.2547 15.7461 17.6267 15.0704 16.951C14.3948 16.2754 13.8048 15.3778 13.4734 14.7735C13.4323 14.6967 13.4204 14.6077 13.4399 14.5228C13.4595 14.4379 13.5091 14.363 13.5796 14.312L15.0451 13.224C15.2542 13.0421 15.3892 12.7897 15.4243 12.5148C15.4594 12.2399 15.3921 11.9617 15.2354 11.7332C14.5249 10.6928 13.697 9.37006 12.4964 8.49301C12.3414 8.38073 12.1599 8.31072 11.9697 8.28986C11.7795 8.26901 11.5872 8.29803 11.4116 8.37406C9.95248 8.99894 8.69004 10.6008 8.75031 12.2486C8.78996 13.3303 9.21341 16.3928 12.4203 19.6012Z" fill="#E7F63C"/>
</g>
<defs>
<clipPath id="clip0_346_421">
<rect width="32" height="32" fill="white"/>
</clipPath>
</defs>
</svg>
