<svg aria-hidden="true" style="position: absolute; width: 0; height: 0; overflow: hidden;" version="1.1" xmlns="http://www.w3.org/2000/svg" xmlns:xlink="http://www.w3.org/1999/xlink">
<defs>
<symbol id="outline_text" viewBox="0 0 84 32">
<path fill="#e7f63c" style="fill: var(--color1, #e7f63c)" d="M29.112 31.719c-6.513 0.007-12.931-1.098-19.278-2.812-2.351-0.633-4.705-1.686-6.849-3.087-3.493-2.281-3.933-6.314-1.257-10.136 1.583-2.26 3.563-3.843 5.645-5.103 2.937-1.781 5.914-3.495 8.977-4.85 2.612-1.158 5.36-1.795 8.060-2.604 1.698-0.507 3.401-1.052 5.126-1.323 4.148-0.655 8.302-1.316 12.469-1.682 4.603-0.405 9.149 0.215 13.641 1.784 1.623 0.567 3.407 0.331 5.118 0.461 0.841 0.063 1.682 0.12 2.523 0.187 0.898 0.074 1.8 0.102 2.692 0.253 2.335 0.391 4.675 0.75 6.994 1.281 3.439 0.788 6.709 2.235 9.433 5.227 2.947 3.238 2.539 7.19-0.317 9.992-2.773 2.721-6.029 3.886-9.251 5.188-4.675 1.893-9.46 3.129-14.302 3.935-6.188 1.028-12.381 2.027-18.587 2.78-3.592 0.436-7.219 0.355-10.83 0.51h-0.008zM37.302 2.94c-0.008-0.088-0.013-0.179-0.022-0.267-1.537 0.134-3.095 0.116-4.611 0.433-4.89 1.021-9.783 2.024-14.525 4.019-4.108 1.728-8.179 3.569-11.814 6.677-1.386 1.186-2.698 2.594-3.869 4.128-1.317 1.721-1.091 3.646 0.403 5.043 0.529 0.496 1.088 1.021 1.695 1.281 2.37 1.003 4.737 2.034 7.152 2.819 5.255 1.703 10.632 2.291 16.024 2.453 3.423 0.102 6.859-0.070 10.28-0.331 4.135-0.313 8.275-0.686 12.386-1.327 4.492-0.704 8.966-1.658 13.429-2.664 4.621-1.042 9.172-2.534 13.493-4.952 1.636-0.915 3.165-2.27 4.584-3.695 1.123-1.126 1.164-2.492 0.365-4.009-0.457-0.869-1.048-1.658-1.677-2.323-2.125-2.256-4.694-3.266-7.289-4.040-5.242-1.559-10.575-2.21-15.943-2.421-1.011-0.039-2.023-0.091-3.028-0.215-2.115-0.253-4.219-0.651-6.336-0.82-1.996-0.158-4.001-0.084-6.002-0.144-0.349-0.011-0.707-0.31-1.045-0.264-1.22 0.158-2.432 0.405-3.646 0.616l-0.005 0.004z"></path>
</symbol>
<symbol id="marker_list" viewBox="0 0 30 32">
<path fill="#e7f63c" style="fill: var(--color1, #e7f63c)" d="M16.345 30.474h-5.022l0.492-11.126-9.354 6.105-2.462-4.332 9.945-5.022-9.945-5.12 2.462-4.332 9.354 6.006-0.492-11.126h5.022l-0.591 11.126 9.354-6.006 2.462 4.332-9.846 5.12 9.846 5.022-2.462 4.332-9.354-6.105 0.591 11.126z"></path>
</symbol>

</defs>
</svg>
