<svg aria-hidden="true" style="position: absolute; width: 0; height: 0; overflow: hidden;" version="1.1" xmlns="http://www.w3.org/2000/svg" xmlns:xlink="http://www.w3.org/1999/xlink">
<defs>
<symbol id="outline_text" viewBox="0 0 84 32">
<path fill="#e7f63c" style="fill: var(--color1, #e7f63c)" d="M29.112 31.719c-6.513 0.007-12.931-1.098-19.278-2.812-2.351-0.633-4.705-1.686-6.849-3.087-3.493-2.281-3.933-6.314-1.257-10.136 1.583-2.26 3.563-3.843 5.645-5.103 2.937-1.781 5.914-3.495 8.977-4.85 2.612-1.158 5.36-1.795 8.060-2.604 1.698-0.507 3.401-1.052 5.126-1.323 4.148-0.655 8.302-1.316 12.469-1.682 4.603-0.405 9.149 0.215 13.641 1.784 1.623 0.567 3.407 0.331 5.118 0.461 0.841 0.063 1.682 0.12 2.523 0.187 0.898 0.074 1.8 0.102 2.692 0.253 2.335 0.391 4.675 0.75 6.994 1.281 3.439 0.788 6.709 2.235 9.433 5.227 2.947 3.238 2.539 7.19-0.317 9.992-2.773 2.721-6.029 3.886-9.251 5.188-4.675 1.893-9.46 3.129-14.302 3.935-6.188 1.028-12.381 2.027-18.587 2.78-3.592 0.436-7.219 0.355-10.83 0.51h-0.008zM37.302 2.94c-0.008-0.088-0.013-0.179-0.022-0.267-1.537 0.134-3.095 0.116-4.611 0.433-4.89 1.021-9.783 2.024-14.525 4.019-4.108 1.728-8.179 3.569-11.814 6.677-1.386 1.186-2.698 2.594-3.869 4.128-1.317 1.721-1.091 3.646 0.403 5.043 0.529 0.496 1.088 1.021 1.695 1.281 2.37 1.003 4.737 2.034 7.152 2.819 5.255 1.703 10.632 2.291 16.024 2.453 3.423 0.102 6.859-0.070 10.28-0.331 4.135-0.313 8.275-0.686 12.386-1.327 4.492-0.704 8.966-1.658 13.429-2.664 4.621-1.042 9.172-2.534 13.493-4.952 1.636-0.915 3.165-2.27 4.584-3.695 1.123-1.126 1.164-2.492 0.365-4.009-0.457-0.869-1.048-1.658-1.677-2.323-2.125-2.256-4.694-3.266-7.289-4.040-5.242-1.559-10.575-2.21-15.943-2.421-1.011-0.039-2.023-0.091-3.028-0.215-2.115-0.253-4.219-0.651-6.336-0.82-1.996-0.158-4.001-0.084-6.002-0.144-0.349-0.011-0.707-0.31-1.045-0.264-1.22 0.158-2.432 0.405-3.646 0.616l-0.005 0.004z"></path>
</symbol>

<symbol id="in-every-outline" viewBox="0 0 111 32">
<path fill="#f5f5f5" style="fill: var(--color1, #f5f5f5)" d="M0 0h111.238v32h-111.238z"></path>
<path fill="#fff" style="fill: var(--color2, #fff)" d="M-4373.333-3316.317h5613.206v6465.016h-5613.206z"></path>
<path fill="#fff" style="fill: var(--color2, #fff)" d="M-84.317-728.381h975.238v3192.381h-975.238z"></path>
<path fill="#e7f63c" style="fill: var(--color3, #e7f63c)" d="M38.354 32c-8.581 0.007-17.037-1.108-25.398-2.837-3.097-0.639-6.198-1.701-9.022-3.114-4.602-2.301-5.182-6.37-1.657-10.226 2.085-2.28 4.693-3.877 7.437-5.148 3.869-1.797 7.791-3.526 11.826-4.893 3.44-1.168 7.062-1.811 10.619-2.628 2.237-0.511 4.482-1.062 6.754-1.335 5.465-0.661 10.938-1.328 16.428-1.698 6.064-0.408 12.053 0.217 17.971 1.801 2.138 0.571 4.489 0.334 6.743 0.465 1.108 0.064 2.216 0.121 3.324 0.188 1.182 0.075 2.372 0.104 3.547 0.256 3.076 0.394 6.159 0.757 9.214 1.293 4.531 0.795 8.839 2.255 12.428 5.272 3.883 3.267 3.345 7.254-0.418 10.081-3.653 2.745-7.943 3.92-12.187 5.234-6.159 1.91-12.463 3.157-18.842 3.97-8.152 1.037-16.311 2.045-24.488 2.805-4.732 0.44-9.511 0.359-14.268 0.515h-0.011zM49.143 2.966c-0.010-0.089-0.018-0.181-0.028-0.27-2.025 0.135-4.078 0.117-6.074 0.437-6.443 1.030-12.888 2.041-19.136 4.054-5.412 1.744-10.774 3.601-15.564 6.736-1.913 1.269-3.58 2.641-5.096 4.164l-0.001 0.001c-1.735 1.737-1.437 3.678 0.531 5.089 0.697 0.5 1.433 1.030 2.233 1.292 3.122 1.012 6.24 2.052 9.423 2.844 6.924 1.718 14.007 2.311 21.111 2.475 4.509 0.103 9.037-0.071 13.543-0.334 5.448-0.316 10.902-0.692 16.318-1.339 5.918-0.71 11.812-1.672 17.692-2.688 6.088-1.051 12.084-2.557 17.776-4.996 2.156-0.923 4.17-2.29 6.039-3.728 1.48-1.136 1.533-2.514 0.482-4.044-0.602-0.877-1.381-1.673-2.209-2.344-2.8-2.276-6.184-3.295-9.603-4.076-6.906-1.573-13.933-2.23-21.005-2.443-1.331-0.039-2.666-0.092-3.989-0.216-2.786-0.256-5.558-0.657-8.347-0.827-2.63-0.159-5.271-0.085-7.908-0.145-0.46-0.011-0.931-0.312-1.377-0.267-1.607 0.16-3.204 0.408-4.804 0.622l-0.007 0.004z"></path>
<path fill="#1c0f0f" style="fill: var(--color4, #1c0f0f)" d="M26.774-11.175h-4.295l-3.328-13.028-3.3 13.028h-4.295l-5.433-18.972h4.523l3.328 13.71 3.612-13.71h3.157l3.584 13.71 3.3-13.71h4.551l-5.404 18.972zM46.912-11.175h-3.612v-8.363c0-1.906-0.996-2.503-2.56-2.503-1.394 0-2.503 0.796-3.129 1.621v9.244h-3.612v-18.972h3.612v7.026c0.882-1.052 2.588-2.133 4.836-2.133 3.015 0 4.466 1.65 4.466 4.324v9.756zM49.617-18.058c0-3.982 2.93-7.196 7.111-7.196 4.096 0 6.884 3.072 6.884 7.566v0.796h-10.212c0.228 1.735 1.621 3.186 3.954 3.186 1.28 0 2.788-0.512 3.669-1.365l1.593 2.332c-1.394 1.28-3.527 1.906-5.66 1.906-4.181 0-7.339-2.816-7.339-7.225zM56.728-22.382c-2.247 0-3.214 1.678-3.385 3.044h6.77c-0.085-1.308-0.996-3.044-3.385-3.044zM69.833-11.175h-3.612v-13.739h3.612v1.877c0.967-1.223 2.674-2.19 4.38-2.19v3.527c-0.256-0.057-0.597-0.085-0.996-0.085-1.195 0-2.788 0.654-3.385 1.536v9.074zM75.589-18.058c0-3.982 2.93-7.196 7.111-7.196 4.096 0 6.884 3.072 6.884 7.566v0.796h-10.212c0.228 1.735 1.621 3.186 3.954 3.186 1.28 0 2.788-0.512 3.669-1.365l1.593 2.332c-1.394 1.28-3.527 1.906-5.66 1.906-4.181 0-7.339-2.816-7.339-7.225zM82.7-22.382c-2.247 0-3.214 1.678-3.385 3.044h6.77c-0.085-1.308-0.996-3.044-3.385-3.044zM101.263-26.933c-1.166 0-2.162-0.967-2.162-2.162s0.996-2.162 2.162-2.162c0 0 0.001 0 0.001 0 1.193 0 2.161 0.967 2.161 2.161 0 0 0 0.001 0 0.001v-0c0 0 0 0.001 0 0.001 0 1.193-0.967 2.161-2.161 2.161-0 0-0.001 0-0.001 0h0zM103.083-11.175h-3.612v-13.739h3.612v13.739zM119.75-11.175h-3.641v-1.735c-1.081 1.337-2.588 2.076-4.238 2.076-3.47 0-6.087-2.617-6.087-7.196 0-4.494 2.588-7.225 6.087-7.225 1.621 0 3.157 0.711 4.238 2.105v-6.997h3.641v18.972zM116.109-15.612v-4.864c-0.626-0.91-1.906-1.564-3.129-1.564-2.048 0-3.47 1.621-3.47 4.011 0 2.361 1.422 3.982 3.47 3.982 1.223 0 2.503-0.654 3.129-1.564zM122.45-18.058c0-3.982 2.93-7.196 7.111-7.196 4.096 0 6.884 3.072 6.884 7.566v0.796h-10.212c0.228 1.735 1.621 3.186 3.954 3.186 1.28 0 2.788-0.512 3.669-1.365l1.593 2.332c-1.394 1.28-3.527 1.906-5.66 1.906-4.181 0-7.339-2.816-7.339-7.225zM129.561-22.382c-2.247 0-3.214 1.678-3.385 3.044h6.77c-0.085-1.308-0.996-3.044-3.385-3.044zM150.915-11.175h-3.612v-1.422c-0.939 1.109-2.56 1.764-4.352 1.764-2.19 0-4.779-1.479-4.779-4.551 0-3.214 2.588-4.38 4.779-4.38 1.82 0 3.442 0.569 4.352 1.678v-1.906c0-1.394-1.195-2.304-3.015-2.304-1.479 0-2.844 0.54-4.011 1.621l-1.365-2.418c1.678-1.479 3.84-2.162 6.002-2.162 3.129 0 6.002 1.252 6.002 5.205v8.875zM147.303-14.474v-1.707c-0.597-0.796-1.735-1.195-2.901-1.195-1.422 0-2.588 0.768-2.588 2.076 0 1.28 1.166 2.020 2.588 2.020 1.166 0 2.304-0.398 2.901-1.195zM182.455-11.175h-3.641v-8.676c0-1.28-0.569-2.19-2.048-2.19-1.28 0-2.332 0.853-2.844 1.593v9.273h-3.641v-8.676c0-1.28-0.569-2.19-2.048-2.19-1.252 0-2.304 0.853-2.844 1.621v9.244h-3.612v-13.739h3.612v1.792c0.569-0.825 2.389-2.133 4.494-2.133 2.020 0 3.3 0.939 3.812 2.503 0.796-1.252 2.617-2.503 4.722-2.503 2.532 0 4.039 1.337 4.039 4.153v9.927zM185.116-18.058c0-3.982 2.93-7.196 7.111-7.196 4.096 0 6.884 3.072 6.884 7.566v0.796h-10.212c0.228 1.735 1.621 3.186 3.954 3.186 1.28 0 2.788-0.512 3.669-1.365l1.593 2.332c-1.394 1.28-3.527 1.906-5.66 1.906-4.181 0-7.339-2.816-7.339-7.225zM192.228-22.382c-2.247 0-3.214 1.678-3.385 3.044h6.77c-0.085-1.308-0.996-3.044-3.385-3.044zM200.839-18.058c0-3.982 2.93-7.196 7.111-7.196 4.096 0 6.884 3.072 6.884 7.566v0.796h-10.212c0.228 1.735 1.621 3.186 3.954 3.186 1.28 0 2.788-0.512 3.669-1.365l1.593 2.332c-1.394 1.28-3.527 1.906-5.66 1.906-4.181 0-7.339-2.816-7.339-7.225zM207.95-22.382c-2.247 0-3.214 1.678-3.385 3.044h6.77c-0.085-1.308-0.996-3.044-3.385-3.044zM222.051-10.833c-2.532 0-3.897-1.308-3.897-3.755v-7.168h-2.276v-3.157h2.276v-3.755h3.641v3.755h2.788v3.157h-2.788v6.201c0 0.853 0.455 1.508 1.252 1.508 0.54 0 1.052-0.199 1.252-0.398l0.768 2.731c-0.54 0.484-1.508 0.882-3.015 0.882zM225.859-12.967l1.564-2.532c0.996 0.939 3.044 1.877 4.75 1.877 1.564 0 2.304-0.54 2.304-1.394 0-0.967-1.195-1.308-2.759-1.621-2.361-0.455-5.404-1.024-5.404-4.295 0-2.304 2.020-4.324 5.632-4.324 2.332 0 4.181 0.796 5.518 1.877l-1.422 2.475c-0.825-0.882-2.389-1.593-4.068-1.593-1.308 0-2.162 0.484-2.162 1.28 0 0.853 1.081 1.166 2.617 1.479 2.361 0.455 5.518 1.081 5.518 4.494 0 2.532-2.133 4.409-5.945 4.409-2.389 0-4.693-0.796-6.144-2.133zM249.679-26.933c-1.166 0-2.162-0.967-2.162-2.162s0.996-2.162 2.162-2.162c0 0 0.001 0 0.001 0 1.193 0 2.161 0.967 2.161 2.161 0 0 0 0.001 0 0.001v-0c0 0 0 0.001 0 0.001 0 1.193-0.967 2.161-2.161 2.161-0 0-0.001 0-0.001 0h0zM251.5-11.175h-3.612v-13.739h3.612v13.739zM267.967-11.175h-3.612v-8.306c0-1.906-0.996-2.56-2.532-2.56-1.422 0-2.532 0.796-3.129 1.621v9.244h-3.612v-13.739h3.612v1.792c0.882-1.052 2.56-2.133 4.807-2.133 3.015 0 4.466 1.707 4.466 4.38v9.7zM284.439-11.175h-3.612v-8.306c0-1.906-0.996-2.56-2.532-2.56-1.422 0-2.532 0.796-3.129 1.621v9.244h-3.612v-13.739h3.612v1.792c0.882-1.052 2.56-2.133 4.807-2.133 3.015 0 4.466 1.707 4.466 4.38v9.7zM294.397-10.833c-4.523 0-7.253-3.3-7.253-7.225 0-3.897 2.731-7.196 7.253-7.196 4.551 0 7.282 3.3 7.282 7.196 0 3.925-2.731 7.225-7.282 7.225zM294.397-14.047c2.247 0 3.527-1.849 3.527-4.011 0-2.133-1.28-3.982-3.527-3.982s-3.499 1.849-3.499 3.982c0 2.162 1.252 4.011 3.499 4.011zM311.812-11.175h-3.897l-5.518-13.739h3.868l3.584 9.557 3.584-9.557h3.897l-5.518 13.739zM330.804-11.175h-3.612v-1.422c-0.939 1.109-2.56 1.764-4.352 1.764-2.19 0-4.779-1.479-4.779-4.551 0-3.214 2.588-4.38 4.779-4.38 1.82 0 3.442 0.569 4.352 1.678v-1.906c0-1.394-1.195-2.304-3.015-2.304-1.479 0-2.844 0.54-4.011 1.621l-1.365-2.418c1.678-1.479 3.84-2.162 6.002-2.162 3.129 0 6.002 1.252 6.002 5.205v8.875zM327.192-14.474v-1.707c-0.597-0.796-1.735-1.195-2.901-1.195-1.422 0-2.588 0.768-2.588 2.076 0 1.28 1.166 2.020 2.588 2.020 1.166 0 2.304-0.398 2.901-1.195zM338.995-10.833c-2.532 0-3.897-1.308-3.897-3.755v-7.168h-2.276v-3.157h2.276v-3.755h3.641v3.755h2.788v3.157h-2.788v6.201c0 0.853 0.455 1.508 1.252 1.508 0.54 0 1.052-0.199 1.252-0.398l0.768 2.731c-0.54 0.484-1.508 0.882-3.015 0.882zM345.79-26.933c-1.166 0-2.162-0.967-2.162-2.162s0.996-2.162 2.162-2.162c0 0 0.001 0 0.001 0 1.193 0 2.161 0.967 2.161 2.161 0 0 0 0.001 0 0.001v-0c0 0 0 0.001 0 0.001 0 1.193-0.967 2.161-2.161 2.161-0 0-0.001 0-0.001 0h0zM347.611-11.175h-3.612v-13.739h3.612v13.739zM357.564-10.833c-4.523 0-7.253-3.3-7.253-7.225 0-3.897 2.731-7.196 7.253-7.196 4.551 0 7.282 3.3 7.282 7.196 0 3.925-2.731 7.225-7.282 7.225zM357.564-14.047c2.247 0 3.527-1.849 3.527-4.011 0-2.133-1.28-3.982-3.527-3.982s-3.499 1.849-3.499 3.982c0 2.162 1.252 4.011 3.499 4.011zM380.411-11.175h-3.612v-8.306c0-1.906-0.996-2.56-2.532-2.56-1.422 0-2.532 0.796-3.129 1.621v9.244h-3.612v-13.739h3.612v1.792c0.882-1.052 2.56-2.133 4.807-2.133 3.015 0 4.466 1.707 4.466 4.38v9.7zM9.679 7.607c-1.166 0-2.162-0.967-2.162-2.162s0.996-2.162 2.162-2.162c0 0 0.001 0 0.001 0 1.193 0 2.161 0.967 2.161 2.161 0 0 0 0.001 0 0.001v-0c0 0 0 0.001 0 0.001 0 1.193-0.967 2.161-2.161 2.161-0 0-0.001 0-0.001 0h0zM11.5 23.365h-3.612v-13.739h3.612v13.739zM27.967 23.365h-3.612v-8.306c0-1.906-0.996-2.56-2.532-2.56-1.422 0-2.532 0.796-3.129 1.621v9.244h-3.612v-13.739h3.612v1.792c0.882-1.052 2.56-2.133 4.807-2.133 3.015 0 4.466 1.707 4.466 4.38v9.7zM37.95 16.482c0-3.982 2.93-7.196 7.111-7.196 4.096 0 6.884 3.072 6.884 7.566v0.796h-10.212c0.228 1.735 1.621 3.186 3.954 3.186 1.28 0 2.788-0.512 3.669-1.365l1.593 2.332c-1.394 1.28-3.527 1.906-5.66 1.906-4.181 0-7.339-2.816-7.339-7.225zM45.061 12.158c-2.247 0-3.214 1.678-3.385 3.044h6.77c-0.085-1.308-0.996-3.044-3.385-3.044zM62.006 23.365h-3.897l-5.518-13.739h3.868l3.584 9.557 3.584-9.557h3.897l-5.518 13.739zM68.255 16.482c0-3.982 2.93-7.196 7.111-7.196 4.096 0 6.884 3.072 6.884 7.566v0.796h-10.212c0.228 1.735 1.621 3.186 3.954 3.186 1.28 0 2.788-0.512 3.669-1.365l1.593 2.332c-1.394 1.28-3.527 1.906-5.66 1.906-4.181 0-7.339-2.816-7.339-7.225zM75.367 12.158c-2.247 0-3.214 1.678-3.385 3.044h6.77c-0.085-1.308-0.996-3.044-3.385-3.044zM88.472 23.365h-3.612v-13.739h3.612v1.877c0.967-1.223 2.674-2.19 4.38-2.19v3.527c-0.256-0.057-0.597-0.085-0.996-0.085-1.195 0-2.788 0.654-3.385 1.536v9.074zM94.626 28.741l0.54-3.243c0.313 0.142 0.796 0.228 1.138 0.228 0.939 0 1.564-0.256 1.906-0.996l0.512-1.166-5.575-13.938h3.868l3.584 9.557 3.584-9.557h3.897l-6.457 15.986c-1.024 2.588-2.844 3.271-5.205 3.328-0.427 0-1.337-0.085-1.792-0.199zM120.583 23.365h-3.612v-18.972h3.612v18.972zM125.957 7.607c-1.166 0-2.162-0.967-2.162-2.162s0.996-2.162 2.162-2.162c0 0 0.001 0 0.001 0 1.193 0 2.161 0.967 2.161 2.161 0 0 0 0.001 0 0.001v-0c0 0 0 0.001 0 0.001 0 1.193-0.967 2.161-2.161 2.161-0 0-0.001 0-0.001 0h0zM127.778 23.365h-3.612v-13.739h3.612v13.739zM144.245 23.365h-3.612v-8.306c0-1.906-0.996-2.56-2.532-2.56-1.422 0-2.532 0.796-3.129 1.621v9.244h-3.612v-13.739h3.612v1.792c0.882-1.052 2.56-2.133 4.807-2.133 3.015 0 4.466 1.707 4.466 4.38v9.7zM146.95 16.482c0-3.982 2.93-7.196 7.111-7.196 4.096 0 6.884 3.072 6.884 7.566v0.796h-10.212c0.228 1.735 1.621 3.186 3.954 3.186 1.28 0 2.788-0.512 3.669-1.365l1.593 2.332c-1.394 1.28-3.527 1.906-5.66 1.906-4.181 0-7.339-2.816-7.339-7.225zM154.061 12.158c-2.247 0-3.214 1.678-3.385 3.044h6.77c-0.085-1.308-0.996-3.044-3.385-3.044zM177.203 23.706c-4.523 0-7.253-3.3-7.253-7.225 0-3.897 2.731-7.196 7.253-7.196 4.551 0 7.282 3.3 7.282 7.196 0 3.925-2.731 7.225-7.282 7.225zM177.203 20.492c2.247 0 3.527-1.849 3.527-4.011 0-2.133-1.28-3.982-3.527-3.982s-3.499 1.849-3.499 3.982c0 2.162 1.252 4.011 3.499 4.011zM194.39 12.784h-2.788v10.581h-3.641v-10.581h-2.276v-3.157h2.276v-0.74c0-2.987 1.934-4.779 4.636-4.779 1.024 0 1.963 0.228 2.617 0.569l-0.74 2.56c-0.313-0.199-0.74-0.284-1.166-0.284-1.024 0-1.707 0.683-1.707 1.991v0.683h2.788v3.157zM202.867 16.482c0-4.21 3.044-7.196 7.282-7.196 2.816 0 4.523 1.223 5.433 2.503l-2.361 2.19c-0.654-0.939-1.65-1.479-2.901-1.479-2.19 0-3.726 1.593-3.726 3.982s1.536 4.011 3.726 4.011c1.252 0 2.247-0.569 2.901-1.479l2.361 2.19c-0.91 1.28-2.617 2.503-5.433 2.503-4.238 0-7.282-2.987-7.282-7.225zM224.314 23.706c-4.523 0-7.253-3.3-7.253-7.225 0-3.897 2.731-7.196 7.253-7.196 4.551 0 7.282 3.3 7.282 7.196 0 3.925-2.731 7.225-7.282 7.225zM224.314 20.492c2.247 0 3.527-1.849 3.527-4.011 0-2.133-1.28-3.982-3.527-3.982s-3.499 1.849-3.499 3.982c0 2.162 1.252 4.011 3.499 4.011zM247.361 23.365h-3.641v-1.735c-1.081 1.337-2.588 2.076-4.238 2.076-3.47 0-6.087-2.617-6.087-7.196 0-4.494 2.588-7.225 6.087-7.225 1.621 0 3.157 0.711 4.238 2.105v-6.997h3.641v18.972zM243.72 18.928v-4.864c-0.626-0.91-1.906-1.564-3.129-1.564-2.048 0-3.47 1.621-3.47 4.011 0 2.361 1.422 3.982 3.47 3.982 1.223 0 2.503-0.654 3.129-1.564zM250.061 16.482c0-3.982 2.93-7.196 7.111-7.196 4.096 0 6.884 3.072 6.884 7.566v0.796h-10.212c0.228 1.735 1.621 3.186 3.954 3.186 1.28 0 2.788-0.512 3.669-1.365l1.593 2.332c-1.394 1.28-3.527 1.906-5.66 1.906-4.181 0-7.339-2.816-7.339-7.225zM257.172 12.158c-2.247 0-3.214 1.678-3.385 3.044h6.77c-0.085-1.308-0.996-3.044-3.385-3.044z"></path>
</symbol>

</defs>
</svg>
